<svg xmlns="http://www.w3.org/2000/svg" width="109" height="20" viewBox="0 0 109 20"><defs><style>.a{fill:#151516;}</style></defs><rect class="a" width="2.002" height="8.18" transform="translate(94.137 0.818)"/><rect class="a" width="2.002" height="8.18" transform="translate(94.137 11.003)"/><rect class="a" width="2.002" height="8.18" transform="translate(106.998 0.818)"/><rect class="a" width="2.002" height="8.18" transform="translate(106.998 11.003)"/><path class="a" d="M675.154-415.677H694.2l-9.521-18.365Zm3.294-2,6.226-12.01,6.226,12.01Z" transform="translate(-630.049 434.86)"/><path class="a" d="M518.867-352.988h-2v8.18H531.1v-2H518.867Z" transform="translate(-491.629 363.991)"/><path class="a" d="M516.865-425.862h2v-6.177H531.1v-2H516.865Z" transform="translate(-491.629 434.86)"/><path class="a" d="M876.713-440.549a9.995,9.995,0,0,0-9.99,10,9.995,9.995,0,0,0,9.99,10,10,10,0,0,0,9.99-10A9.995,9.995,0,0,0,876.713-440.549Zm0,18a8,8,0,0,1-7.987-8,8,8,0,0,1,7.987-8,8,8,0,0,1,7.987,8A8,8,0,0,1,876.713-422.553Z" transform="translate(-797.572 440.549)"/><ellipse class="a" cx="1.343" cy="1.344" rx="1.343" ry="1.344" transform="matrix(0.997, -0.071, 0.071, 0.997, 31.92, 8.754)"/><path class="a" d="M1115.614-371.666a1.344,1.344,0,0,0-1.343,1.344,1.344,1.344,0,0,0,1.343,1.344,1.343,1.343,0,0,0,1.343-1.344A1.344,1.344,0,0,0,1115.614-371.666Z" transform="translate(-1014.046 380.322)"/><path class="a" d="M326.815-440.5a9.789,9.789,0,0,0-1-.05q-.507,0-1,.049a10,10,0,0,0-8.989,9.951,10,10,0,0,0,8.989,9.951q.493.049,1,.049a9.789,9.789,0,0,0,1-.05,10,10,0,0,0,8.988-9.949A10,10,0,0,0,326.815-440.5Zm-2,17.882a8,8,0,0,1-6.987-7.933,8,8,0,0,1,6.987-7.933Zm2,0v-15.865a8,8,0,0,1,6.986,7.933A8,8,0,0,1,326.815-422.616Z" transform="translate(-315.824 440.548)"/></svg>