<svg id="success" xmlns="http://www.w3.org/2000/svg" width="109" height="118" viewBox="0 0 109 118">
    <path id="Path_203" d="M3331.986,3685.958c0-3.151,18.521-5.7,41.366-5.7s41.367,2.554,41.367,5.7-18.52,5.7-41.367,5.7S3331.986,3689.109,3331.986,3685.958Z" transform="translate(-3314.683 -3573.662)" fill="#eef0f6"/>
    <path id="Path_204" d="M3348.655,3330.581c-21,10.892-29.366,38.646-18.682,61.988s36.373,33.442,57.374,22.551,29.371-38.648,18.685-62-36.37-33.436-57.376-22.542Z" transform="translate(-3309.858 -3317.251)" fill="#fff"/>
    <g id="Group_42" transform="translate(0 0.417)">
        <path id="Path_205" d="M3282.021,3373.963c-12.73-27.815-2.761-60.892,22.263-73.87a46.255,46.255,0,0,1,15.1-4.8l.021-.015-4.98.557a46.14,46.14,0,0,0-17.425,5.055c-25.025,12.979-34.993,46.055-22.263,73.87,9.983,21.813,30.958,33.913,51.613,31.869v.005l7.213-.793-.007,0C3312.923,3407.846,3291.991,3395.748,3282.021,3373.963Z" transform="translate(-3269.196 -3295.283)" fill="#228bd1"/>
        <path id="Path_206" d="M3501.423,3353.153c-8.554-18.692-26.729-28.877-44.418-26.6,16.671-.657,33.2,9.45,41.254,27.045,10.745,23.475,2.334,51.38-18.786,62.334a39.426,39.426,0,0,1-7.289,2.894,38.794,38.794,0,0,0,10.555-3.673C3503.744,3404.255,3512.109,3376.5,3501.423,3353.153Z" transform="translate(-3405.25 -3317.698)" fill="#228bd1"/>
    </g>
    <path id="Path_207" d="M3308.472,3369.089c-10.684-23.343-2.319-51.1,18.683-61.988s46.693-.8,57.376,22.542,2.322,51.1-18.685,62-46.688.8-57.374-22.551Zm14.974-70.09c-25.024,12.979-34.993,46.055-22.263,73.871s43.346,39.85,68.371,26.872,35-46.058,22.266-73.879-43.344-39.845-68.374-26.864Z" transform="translate(-3288.357 -3293.772)" fill="#29aaff"/>
    <g id="Group_43" transform="translate(32.686 36.923)">
        <path id="Path_208" d="M3437.953,3429.012h0a3.41,3.41,0,0,0-5.14-.351l-24.585,26.8-13.214-14.855a3.961,3.961,0,0,0-5.851-.308h0a4.737,4.737,0,0,0-.248,6.366l16.165,18.529a4.015,4.015,0,0,0,6.238.139l26.939-30.564A4.459,4.459,0,0,0,3437.953,3429.012Z" transform="translate(-3387.805 -3427.65)" fill="#29aaff"/>
    </g>
</svg>
